_Ubuntu-Condensed.ufo
<glyph name="parenleft" format="2">
  <advance width="285"/>
  <unicode hex="0028"/>
  <outline>
    <contour>
      <point x="211" y="-187" type="curve"/>
      <point x="280" y="-149" type="line"/>
      <point x="206" y="-25"/>
      <point x="162" y="129"/>
      <point x="162" y="299" type="curve" smooth="yes"/>
      <point x="162" y="469"/>
      <point x="206" y="623"/>
      <point x="280" y="747" type="curve"/>
      <point x="211" y="785" type="line"/>
      <point x="129" y="657"/>
      <point x="76" y="488"/>
      <point x="76" y="299" type="curve" smooth="yes"/>
      <point x="76" y="110"/>
      <point x="129" y="-59"/>
    </contour>
  </outline>
</glyph>
<glyph name="two" format="2">
  <advance width="430"/>
  <unicode hex="0032"/>
  <outline>
    <contour>
      <point x="59" y="0" type="curve"/>
      <point x="369" y="0" type="line"/>
      <point x="369" y="78" type="line"/>
      <point x="151" y="78" type="line"/>
      <point x="160" y="166"/>
      <point x="209" y="236"/>
      <point x="256" y="305" type="curve" smooth="yes"/>
      <point x="306" y="377"/>
      <point x="355" y="448"/>
      <point x="355" y="534" type="curve" smooth="yes"/>
      <point x="355" y="653"/>
      <point x="295" y="709"/>
      <point x="188" y="709" type="curve" smooth="yes"/>
      <point x="133" y="709"/>
      <point x="83" y="689"/>
      <point x="44" y="650" type="curve"/>
      <point x="86" y="591" type="line"/>
      <point x="111" y="615"/>
      <point x="143" y="632"/>
      <point x="181" y="632" type="curve" smooth="yes"/>
      <point x="236" y="632"/>
      <point x="265" y="602"/>
      <point x="265" y="532" type="curve" smooth="yes"/>
      <point x="265" y="453"/>
      <point x="224" y="396"/>
      <point x="178" y="332" type="curve" smooth="yes"/>
      <point x="122" y="254"/>
      <point x="59" y="168"/>
      <point x="59" y="19" type="curve" smooth="yes"/>
      <point x="59" y="13"/>
      <point x="59" y="6"/>
    </contour>
  </outline>
</glyph>
<glyph name="six" format="2">
  <advance width="430"/>
  <unicode hex="0036"/>
  <outline>
    <contour>
      <point x="228" y="-15" type="curve" smooth="yes"/>
      <point x="335" y="-15"/>
      <point x="384" y="72"/>
      <point x="384" y="213" type="curve" smooth="yes"/>
      <point x="384" y="344"/>
      <point x="329" y="425"/>
      <point x="233" y="425" type="curve" smooth="yes"/>
      <point x="211" y="425"/>
      <point x="184" y="420"/>
      <point x="156" y="408" type="curve"/>
      <point x="177" y="569"/>
      <point x="247" y="613"/>
      <point x="348" y="625" type="curve"/>
      <point x="339" y="696" type="line"/>
      <point x="134" y="688"/>
      <point x="63" y="495"/>
      <point x="63" y="295" type="curve" smooth="yes"/>
      <point x="63" y="65"/>
      <point x="118" y="-15"/>
    </contour>
    <contour>
      <point x="227" y="57" type="curve" smooth="yes"/>
      <point x="157" y="57"/>
      <point x="149" y="163"/>
      <point x="149" y="286" type="curve" smooth="yes"/>
      <point x="149" y="303"/>
      <point x="149" y="320"/>
      <point x="150" y="336" type="curve"/>
      <point x="169" y="347"/>
      <point x="191" y="355"/>
      <point x="212" y="355" type="curve" smooth="yes"/>
      <point x="270" y="355"/>
      <point x="297" y="309"/>
      <point x="297" y="209" type="curve" smooth="yes"/>
      <point x="297" y="118"/>
      <point x="279" y="57"/>
    </contour>
  </outline>
</glyph>
<glyph name="E" format="2">
  <advance width="456"/>
  <unicode hex="0045"/>
  <anchor x="228" y="0" name="bottom"/>
  <anchor x="410" y="10" name="ogonek"/>
  <anchor x="228" y="693" name="top"/>
  <anchor x="20" y="693" name="topleft"/>
  <outline>
    <contour>
      <point x="84" y="0" type="line"/>
      <point x="411" y="0" type="line"/>
      <point x="411" y="77" type="line"/>
      <point x="174" y="77" type="line"/>
      <point x="174" y="326" type="line"/>
      <point x="374" y="326" type="line"/>
      <point x="374" y="401" type="line"/>
      <point x="174" y="401" type="line"/>
      <point x="174" y="616" type="line"/>
      <point x="395" y="616" type="line"/>
      <point x="395" y="693" type="line"/>
      <point x="84" y="693" type="line"/>
    </contour>
  </outline>
</glyph>
<glyph name="F" format="2">
  <advance width="426"/>
  <unicode hex="0046"/>
  <anchor x="213" y="0" name="bottom"/>
  <anchor x="213" y="693" name="top"/>
  <outline>
    <contour>
      <point x="84" y="0" type="line"/>
      <point x="174" y="0" type="line"/>
      <point x="174" y="323" type="line"/>
      <point x="370" y="323" type="line"/>
      <point x="370" y="398" type="line"/>
      <point x="174" y="398" type="line"/>
      <point x="174" y="616" type="line"/>
      <point x="395" y="616" type="line"/>
      <point x="395" y="693" type="line"/>
      <point x="84" y="693" type="line"/>
    </contour>
  </outline>
</glyph>
<glyph name="N" format="2">
  <advance width="581"/>
  <unicode hex="004E"/>
  <anchor x="291" y="0" name="bottom"/>
  <anchor x="291" y="693" name="top"/>
  <outline>
    <contour>
      <point x="84" y="0" type="line"/>
      <point x="168" y="0" type="line"/>
      <point x="168" y="531" type="line"/>
      <point x="258" y="373"/>
      <point x="359" y="158"/>
      <point x="424" y="0" type="curve"/>
      <point x="497" y="0" type="line"/>
      <point x="497" y="693" type="line"/>
      <point x="413" y="693" type="line"/>
      <point x="413" y="196" type="line"/>
      <point x="350" y="344"/>
      <point x="260" y="527"/>
      <point x="159" y="693" type="curve"/>
      <point x="84" y="693" type="line"/>
    </contour>
  </outline>
</glyph>
<glyph name="T" format="2">
  <advance width="426"/>
  <unicode hex="0054"/>
  <anchor x="213" y="0" name="bottom"/>
  <anchor x="213" y="347" name="center"/>
  <anchor x="213" y="693" name="top"/>
  <outline>
    <contour>
      <point x="168" y="0" type="line"/>
      <point x="258" y="0" type="line"/>
      <point x="258" y="616" type="line"/>
      <point x="412" y="616" type="line"/>
      <point x="412" y="693" type="line"/>
      <point x="14" y="693" type="line"/>
      <point x="14" y="616" type="line"/>
      <point x="168" y="616" type="line"/>
    </contour>
  </outline>
</glyph>
<glyph name="V" format="2">
  <advance width="497"/>
  <unicode hex="0056"/>
  <anchor x="249" y="0" name="bottom"/>
  <anchor x="249" y="693" name="top"/>
  <outline>
    <contour>
      <point x="200" y="0" type="curve"/>
      <point x="297" y="0" type="line"/>
      <point x="359" y="199"/>
      <point x="419" y="401"/>
      <point x="477" y="693" type="curve"/>
      <point x="386" y="693" type="line"/>
      <point x="352" y="487"/>
      <point x="298" y="276"/>
      <point x="250" y="107" type="curve"/>
      <point x="202" y="276"/>
      <point x="148" y="487"/>
      <point x="114" y="693" type="curve"/>
      <point x="20" y="693" type="line"/>
      <point x="78" y="401"/>
      <point x="138" y="199"/>
    </contour>
  </outline>
</glyph>
<glyph name="backslash" format="2">
  <advance width="270"/>
  <unicode hex="005C"/>
  <outline>
    <contour>
      <point x="216" y="-185" type="line"/>
      <point x="296" y="-185" type="line"/>
      <point x="54" y="783" type="line"/>
      <point x="-26" y="783" type="line"/>
    </contour>
  </outline>
</glyph>
<glyph name="underscore" format="2">
  <advance width="367"/>
  <unicode hex="005F"/>
  <outline>
    <contour>
      <point x="-4" y="-182" type="line"/>
      <point x="371" y="-182" type="line"/>
      <point x="371" y="-109" type="line"/>
      <point x="-4" y="-109" type="line"/>
    </contour>
  </outline>
</glyph>
<glyph name="e" format="2">
  <advance width="436"/>
  <unicode hex="0065"/>
  <anchor x="218" y="0" name="bottom"/>
  <anchor x="392" y="10" name="ogonek"/>
  <anchor x="218" y="520" name="top"/>
  <outline>
    <contour>
      <point x="246" y="-13" type="curve" smooth="yes"/>
      <point x="301" y="-13"/>
      <point x="345" y="5"/>
      <point x="362" y="17" type="curve"/>
      <point x="346" y="86" type="line"/>
      <point x="332" y="78"/>
      <point x="296" y="63"/>
      <point x="257" y="63" type="curve" smooth="yes"/>
      <point x="164" y="63"/>
      <point x="140" y="137"/>
      <point x="137" y="237" type="curve"/>
      <point x="386" y="237" type="line"/>
      <point x="387" y="253"/>
      <point x="387" y="268"/>
      <point x="387" y="283" type="curve" smooth="yes"/>
      <point x="387" y="444"/>
      <point x="343" y="538"/>
      <point x="224" y="538" type="curve" smooth="yes"/>
      <point x="119" y="538"/>
      <point x="49" y="453"/>
      <point x="49" y="259" type="curve" smooth="yes"/>
      <point x="49" y="98"/>
      <point x="100" y="-13"/>
    </contour>
    <contour>
      <point x="138" y="307" type="line"/>
      <point x="143" y="402"/>
      <point x="167" y="465"/>
      <point x="224" y="465" type="curve" smooth="yes"/>
      <point x="281" y="465"/>
      <point x="297" y="404"/>
      <point x="297" y="307" type="curve"/>
    </contour>
  </outline>
</glyph>
<glyph name="w" format="2">
  <advance width="573"/>
  <unicode hex="0077"/>
  <anchor x="287" y="0" name="bottom"/>
  <anchor x="287" y="520" name="top"/>
  <outline>
    <contour>
      <point x="129" y="0" type="curve"/>
      <point x="216" y="0" type="line"/>
      <point x="236" y="83"/>
      <point x="275" y="273"/>
      <point x="292" y="395" type="curve"/>
      <point x="307" y="273"/>
      <point x="339" y="83"/>
      <point x="360" y="0" type="curve"/>
      <point x="444" y="0" type="line"/>
      <point x="485" y="137"/>
      <point x="523" y="321"/>
      <point x="553" y="525" type="curve"/>
      <point x="471" y="525" type="line"/>
      <point x="460" y="411"/>
      <point x="427" y="201"/>
      <point x="403" y="93" type="curve"/>
      <point x="382" y="201"/>
      <point x="347" y="421"/>
      <point x="335" y="525" type="curve"/>
      <point x="254" y="525" type="line"/>
      <point x="238" y="421"/>
      <point x="197" y="200"/>
      <point x="173" y="93" type="curve"/>
      <point x="149" y="200"/>
      <point x="116" y="411"/>
      <point x="105" y="525" type="curve"/>
      <point x="20" y="525" type="line"/>
      <point x="50" y="321"/>
      <point x="88" y="137"/>
    </contour>
  </outline>
</glyph>
<glyph name="braceright" format="2">
  <advance width="266"/>
  <unicode hex="007D"/>
  <outline>
    <contour>
      <point x="5" y="-185" type="line"/>
      <point x="6" y="-185" type="line"/>
      <point x="108" y="-185"/>
      <point x="164" y="-143"/>
      <point x="164" y="-29" type="curve" smooth="yes"/>
      <point x="164" y="143" type="line" smooth="yes"/>
      <point x="164" y="217"/>
      <point x="185" y="261"/>
      <point x="229" y="266" type="curve"/>
      <point x="229" y="332" type="line"/>
      <point x="185" y="337"/>
      <point x="164" y="381"/>
      <point x="164" y="455" type="curve" smooth="yes"/>
      <point x="164" y="627" type="line" smooth="yes"/>
      <point x="164" y="741"/>
      <point x="108" y="783"/>
      <point x="6" y="783" type="curve"/>
      <point x="6" y="783" type="line"/>
      <point x="6" y="716" type="line"/>
      <point x="6" y="716" type="line"/>
      <point x="61" y="716"/>
      <point x="82" y="688"/>
      <point x="82" y="628" type="curve" smooth="yes"/>
      <point x="82" y="457" type="line" smooth="yes"/>
      <point x="82" y="378"/>
      <point x="104" y="327"/>
      <point x="151" y="299" type="curve"/>
      <point x="104" y="271"/>
      <point x="82" y="220"/>
      <point x="82" y="141" type="curve" smooth="yes"/>
      <point x="82" y="-30" type="line" smooth="yes"/>
      <point x="82" y="-90"/>
      <point x="61" y="-118"/>
      <point x="6" y="-118" type="curve"/>
      <point x="5" y="-118" type="line"/>
    </contour>
  </outline>
</glyph>
<glyph name="currency" format="2">
  <advance width="430"/>
  <unicode hex="00A4"/>
  <outline>
    <contour>
      <point x="88" y="110" type="line"/>
      <point x="138" y="179" type="line"/>
      <point x="160" y="165"/>
      <point x="186" y="157"/>
      <point x="216" y="157" type="curve" smooth="yes"/>
      <point x="245" y="157"/>
      <point x="272" y="165"/>
      <point x="293" y="179" type="curve"/>
      <point x="344" y="110" type="line"/>
      <point x="402" y="160" type="line"/>
      <point x="343" y="240" type="line"/>
      <point x="357" y="270"/>
      <point x="365" y="306"/>
      <point x="365" y="348" type="curve" smooth="yes"/>
      <point x="365" y="390"/>
      <point x="357" y="427"/>
      <point x="343" y="457" type="curve"/>
      <point x="402" y="538" type="line"/>
      <point x="344" y="588" type="line"/>
      <point x="292" y="517" type="line"/>
      <point x="271" y="531"/>
      <point x="245" y="539"/>
      <point x="216" y="539" type="curve" smooth="yes"/>
      <point x="187" y="539"/>
      <point x="161" y="531"/>
      <point x="139" y="517" type="curve"/>
      <point x="88" y="588" type="line"/>
      <point x="30" y="538" type="line"/>
      <point x="89" y="457" type="line"/>
      <point x="75" y="427"/>
      <point x="67" y="390"/>
      <point x="67" y="348" type="curve" smooth="yes"/>
      <point x="67" y="306"/>
      <point x="74" y="270"/>
      <point x="88" y="240" type="curve"/>
      <point x="30" y="160" type="line"/>
    </contour>
    <contour>
      <point x="216" y="224" type="curve" smooth="yes"/>
      <point x="167" y="224"/>
      <point x="137" y="270"/>
      <point x="137" y="348" type="curve" smooth="yes"/>
      <point x="137" y="426"/>
      <point x="167" y="472"/>
      <point x="216" y="472" type="curve" smooth="yes"/>
      <point x="265" y="472"/>
      <point x="295" y="426"/>
      <point x="295" y="348" type="curve" smooth="yes"/>
      <point x="295" y="270"/>
      <point x="265" y="224"/>
    </contour>
  </outline>
</glyph>
<glyph name="twosuperior" format="2">
  <advance width="280"/>
  <unicode hex="00B2"/>
  <outline>
    <contour>
      <point x="34" y="306" type="curve"/>
      <point x="244" y="306" type="line"/>
      <point x="244" y="371" type="line"/>
      <point x="117" y="371" type="line"/>
      <point x="124" y="397"/>
      <point x="144" y="423"/>
      <point x="162" y="445" type="curve" smooth="yes"/>
      <point x="193" y="483"/>
      <point x="239" y="531"/>
      <point x="239" y="595" type="curve" smooth="yes"/>
      <point x="239" y="658"/>
      <point x="194" y="699"/>
      <point x="132" y="699" type="curve" smooth="yes"/>
      <point x="95" y="699"/>
      <point x="63" y="686"/>
      <point x="32" y="663" type="curve"/>
      <point x="62" y="610" type="line"/>
      <point x="81" y="624"/>
      <point x="104" y="635"/>
      <point x="124" y="635" type="curve" smooth="yes"/>
      <point x="148" y="635"/>
      <point x="169" y="620"/>
      <point x="169" y="588" type="curve" smooth="yes"/>
      <point x="169" y="558"/>
      <point x="150" y="532"/>
      <point x="115" y="489" type="curve" smooth="yes"/>
      <point x="78" y="444"/>
      <point x="34" y="392"/>
      <point x="34" y="323" type="curve"/>
      <point x="34" y="317"/>
      <point x="34" y="312"/>
    </contour>
  </outline>
</glyph>
<glyph name="ordmasculine" format="2">
  <advance width="364"/>
  <unicode hex="00BA"/>
  <outline>
    <contour>
      <point x="182" y="332" type="curve" smooth="yes"/>
      <point x="264" y="332"/>
      <point x="323" y="395"/>
      <point x="323" y="521" type="curve" smooth="yes"/>
      <point x="323" y="650"/>
      <point x="264" y="710"/>
      <point x="182" y="710" type="curve" smooth="yes"/>
      <point x="100" y="710"/>
      <point x="41" y="650"/>
      <point x="41" y="521" type="curve" smooth="yes"/>
      <point x="41" y="394"/>
      <point x="100" y="332"/>
    </contour>
    <contour>
      <point x="182" y="394" type="curve" smooth="yes"/>
      <point x="137" y="394"/>
      <point x="111" y="435"/>
      <point x="111" y="521" type="curve" smooth="yes"/>
      <point x="111" y="609"/>
      <point x="138" y="648"/>
      <point x="182" y="648" type="curve" smooth="yes"/>
      <point x="227" y="648"/>
      <point x="253" y="609"/>
      <point x="253" y="521" type="curve" smooth="yes"/>
      <point x="253" y="435"/>
      <point x="227" y="394"/>
    </contour>
  </outline>
</glyph>
<glyph name="germandbls" format="2">
  <advance width="487"/>
  <unicode hex="00DF"/>
  <anchor x="244" y="0" name="bottom"/>
  <anchor x="244" y="776" name="top"/>
  <outline>
    <contour>
      <point x="297" y="-12" type="curve" smooth="yes"/>
      <point x="400" y="-12"/>
      <point x="452" y="67"/>
      <point x="452" y="164" type="curve" smooth="yes"/>
      <point x="452" y="233"/>
      <point x="428" y="279"/>
      <point x="394" y="310" type="curve" smooth="yes"/>
      <point x="331" y="368"/>
      <point x="313" y="386"/>
      <point x="313" y="413" type="curve" smooth="yes"/>
      <point x="313" y="432"/>
      <point x="321" y="446"/>
      <point x="347" y="484" type="curve" smooth="yes"/>
      <point x="373" y="521"/>
      <point x="404" y="566"/>
      <point x="404" y="628" type="curve" smooth="yes"/>
      <point x="404" y="712"/>
      <point x="348" y="776"/>
      <point x="246" y="776" type="curve" smooth="yes"/>
      <point x="137" y="776"/>
      <point x="76" y="715"/>
      <point x="76" y="583" type="curve" smooth="yes"/>
      <point x="76" y="0" type="line"/>
      <point x="162" y="0" type="line"/>
      <point x="162" y="586" type="line" smooth="yes"/>
      <point x="162" y="672"/>
      <point x="193" y="700"/>
      <point x="249" y="700" type="curve" smooth="yes"/>
      <point x="295" y="700"/>
      <point x="318" y="664"/>
      <point x="318" y="618" type="curve" smooth="yes"/>
      <point x="318" y="570"/>
      <point x="298" y="542"/>
      <point x="275" y="510" type="curve" smooth="yes"/>
      <point x="247" y="469"/>
      <point x="232" y="445"/>
      <point x="232" y="403" type="curve" smooth="yes"/>
      <point x="232" y="358"/>
      <point x="255" y="326"/>
      <point x="306" y="279" type="curve" smooth="yes"/>
      <point x="345" y="243"/>
      <point x="365" y="222"/>
      <point x="365" y="165" type="curve" smooth="yes"/>
      <point x="365" y="115"/>
      <point x="346" y="68"/>
      <point x="287" y="68" type="curve" smooth="yes"/>
      <point x="270" y="68"/>
      <point x="254" y="71"/>
      <point x="236" y="76" type="curve"/>
      <point x="221" y="1" type="line"/>
      <point x="246" y="-8"/>
      <point x="270" y="-12"/>
    </contour>
  </outline>
</glyph>
<glyph name="dcroat" format="2">
  <advance width="467"/>
  <unicode hex="0111"/>
  <outline>
    <contour>
      <point x="253" y="-13" type="curve" smooth="yes"/>
      <point x="302" y="-13"/>
      <point x="353" y="-2"/>
      <point x="390" y="14" type="curve"/>
      <point x="390" y="617" type="line"/>
      <point x="467" y="617" type="line"/>
      <point x="467" y="683" type="line"/>
      <point x="390" y="683" type="line"/>
      <point x="390" y="776" type="line"/>
      <point x="304" y="761" type="line"/>
      <point x="304" y="683" type="line"/>
      <point x="190" y="683" type="line"/>
      <point x="190" y="617" type="line"/>
      <point x="304" y="617" type="line"/>
      <point x="304" y="521" type="line"/>
      <point x="283" y="531"/>
      <point x="263" y="538"/>
      <point x="232" y="538" type="curve" smooth="yes"/>
      <point x="104" y="538"/>
      <point x="48" y="431"/>
      <point x="48" y="264" type="curve" smooth="yes"/>
      <point x="48" y="80"/>
      <point x="110" y="-13"/>
    </contour>
    <contour>
      <point x="253" y="63" type="curve" smooth="yes"/>
      <point x="176" y="63"/>
      <point x="138" y="121"/>
      <point x="138" y="264" type="curve" smooth="yes"/>
      <point x="138" y="413"/>
      <point x="176" y="462"/>
      <point x="242" y="462" type="curve" smooth="yes"/>
      <point x="264" y="462"/>
      <point x="286" y="456"/>
      <point x="304" y="446" type="curve"/>
      <point x="304" y="70" type="line"/>
      <point x="286" y="65"/>
      <point x="268" y="63"/>
    </contour>
  </outline>
</glyph>
<glyph name="dotlessi" format="2">
  <advance width="242"/>
  <unicode hex="0131"/>
  <anchor x="121" y="0" name="bottom"/>
  <anchor x="218" y="10" name="ogonek"/>
  <anchor x="121" y="520" name="top"/>
  <outline>
    <contour>
      <point x="78" y="0" type="line"/>
      <point x="164" y="0" type="line"/>
      <point x="164" y="525" type="line"/>
      <point x="78" y="525" type="line"/>
    </contour>
  </outline>
</glyph>
<glyph name="Lslash" format="2">
  <advance width="417"/>
  <unicode hex="0141"/>
  <outline>
    <contour>
      <point x="94" y="0" type="line"/>
      <point x="403" y="0" type="line"/>
      <point x="403" y="77" type="line"/>
      <point x="184" y="77" type="line"/>
      <point x="184" y="337" type="line"/>
      <point x="318" y="418" type="line"/>
      <point x="284" y="474" type="line"/>
      <point x="184" y="414" type="line"/>
      <point x="184" y="693" type="line"/>
      <point x="94" y="693" type="line"/>
      <point x="94" y="360" type="line"/>
      <point x="11" y="310" type="line"/>
      <point x="45" y="254" type="line"/>
      <point x="94" y="283" type="line"/>
    </contour>
  </outline>
</glyph>
<glyph name="OE" format="2">
  <advance width="756"/>
  <unicode hex="0152"/>
  <anchor x="378" y="0" name="bottom"/>
  <anchor x="378" y="693" name="top"/>
  <outline>
    <contour>
      <point x="344" y="-7" type="curve" smooth="yes"/>
      <point x="370" y="-7"/>
      <point x="397" y="-4"/>
      <point x="425" y="0" type="curve"/>
      <point x="721" y="0" type="line"/>
      <point x="721" y="77" type="line"/>
      <point x="484" y="77" type="line"/>
      <point x="484" y="326" type="line"/>
      <point x="684" y="326" type="line"/>
      <point x="684" y="401" type="line"/>
      <point x="484" y="401" type="line"/>
      <point x="484" y="616" type="line"/>
      <point x="705" y="616" type="line"/>
      <point x="705" y="693" type="line"/>
      <point x="436" y="693" type="line"/>
      <point x="403" y="698"/>
      <point x="372" y="701"/>
      <point x="343" y="701" type="curve" smooth="yes"/>
      <point x="170" y="701"/>
      <point x="56" y="601"/>
      <point x="56" y="347" type="curve" smooth="yes"/>
      <point x="56" y="93"/>
      <point x="170" y="-7"/>
    </contour>
    <contour>
      <point x="339" y="73" type="curve" smooth="yes"/>
      <point x="208" y="73"/>
      <point x="152" y="155"/>
      <point x="152" y="347" type="curve" smooth="yes"/>
      <point x="152" y="540"/>
      <point x="208" y="621"/>
      <point x="340" y="621" type="curve" smooth="yes"/>
      <point x="357" y="621"/>
      <point x="375" y="620"/>
      <point x="394" y="617" type="curve"/>
      <point x="394" y="77" type="line"/>
      <point x="375" y="74"/>
      <point x="357" y="73"/>
    </contour>
  </outline>
</glyph>
<glyph name="Tbar" format="2">
  <advance width="426"/>
  <unicode hex="0166"/>
  <outline>
    <contour>
      <point x="168" y="0" type="line"/>
      <point x="258" y="0" type="line"/>
      <point x="258" y="318" type="line"/>
      <point x="347" y="318" type="line"/>
      <point x="347" y="384" type="line"/>
      <point x="258" y="384" type="line"/>
      <point x="258" y="616" type="line"/>
      <point x="412" y="616" type="line"/>
      <point x="412" y="693" type="line"/>
      <point x="14" y="693" type="line"/>
      <point x="14" y="616" type="line"/>
      <point x="168" y="616" type="line"/>
      <point x="168" y="384" type="line"/>
      <point x="79" y="384" type="line"/>
      <point x="79" y="318" type="line"/>
      <point x="168" y="318" type="line"/>
    </contour>
  </outline>
</glyph>
<glyph name="uni018D" format="2">
  <advance width="468"/>
  <unicode hex="018D"/>
  <outline>
    <contour>
      <point x="219" y="-185" type="curve" smooth="yes"/>
      <point x="310" y="-185"/>
      <point x="393" y="-153"/>
      <point x="393" y="-67" type="curve" smooth="yes"/>
      <point x="393" y="-5"/>
      <point x="358" y="21"/>
      <point x="299" y="56" type="curve"/>
      <point x="379" y="110"/>
      <point x="419" y="190"/>
      <point x="419" y="304" type="curve" smooth="yes"/>
      <point x="419" y="426"/>
      <point x="362" y="538"/>
      <point x="234" y="538" type="curve" smooth="yes"/>
      <point x="106" y="538"/>
      <point x="49" y="426"/>
      <point x="49" y="304" type="curve" smooth="yes"/>
      <point x="49" y="129"/>
      <point x="159" y="50"/>
      <point x="238" y="6" type="curve" smooth="yes"/>
      <point x="292" y="-24"/>
      <point x="309" y="-38"/>
      <point x="309" y="-67" type="curve" smooth="yes"/>
      <point x="309" y="-102"/>
      <point x="274" y="-116"/>
      <point x="221" y="-116" type="curve" smooth="yes"/>
      <point x="179" y="-116"/>
      <point x="131" y="-104"/>
      <point x="98" y="-93" type="curve"/>
      <point x="85" y="-163" type="line"/>
      <point x="119" y="-176"/>
      <point x="173" y="-185"/>
    </contour>
    <contour>
      <point x="235" y="96" type="curve"/>
      <point x="182" y="136"/>
      <point x="139" y="201"/>
      <point x="139" y="304" type="curve" smooth="yes"/>
      <point x="139" y="390"/>
      <point x="166" y="461"/>
      <point x="234" y="461" type="curve" smooth="yes"/>
      <point x="302" y="461"/>
      <point x="329" y="392"/>
      <point x="329" y="304" type="curve" smooth="yes"/>
      <point x="329" y="213"/>
      <point x="299" y="144"/>
    </contour>
  </outline>
</glyph>
<glyph name="uni0193" format="2">
  <advance width="511"/>
  <unicode hex="0193"/>
  <anchor x="256" y="0" name="bottom"/>
  <anchor x="256" y="693" name="top"/>
  <outline>
    <contour>
      <point x="305" y="-16" type="curve" smooth="yes"/>
      <point x="363" y="-16"/>
      <point x="420" y="-2"/>
      <point x="456" y="15" type="curve"/>
      <point x="456" y="341" type="line"/>
      <point x="366" y="341" type="line"/>
      <point x="366" y="70" type="line"/>
      <point x="350" y="65"/>
      <point x="333" y="63"/>
      <point x="313" y="63" type="curve" smooth="yes"/>
      <point x="214" y="63"/>
      <point x="151" y="144"/>
      <point x="151" y="347" type="curve" smooth="yes"/>
      <point x="151" y="536"/>
      <point x="201" y="630"/>
      <point x="323" y="630" type="curve" smooth="yes"/>
      <point x="375" y="630"/>
      <point x="410" y="620"/>
      <point x="443" y="606" type="curve"/>
      <point x="446" y="622" type="line" smooth="yes"/>
      <point x="455" y="669"/>
      <point x="468" y="715"/>
      <point x="508" y="715" type="curve" smooth="yes"/>
      <point x="519" y="715"/>
      <point x="533" y="712"/>
      <point x="549" y="704" type="curve"/>
      <point x="561" y="776" type="line"/>
      <point x="546" y="783"/>
      <point x="527" y="788"/>
      <point x="507" y="788" type="curve" smooth="yes"/>
      <point x="448" y="788"/>
      <point x="411" y="759"/>
      <point x="393" y="700" type="curve"/>
      <point x="371" y="705"/>
      <point x="347" y="709"/>
      <point x="322" y="709" type="curve" smooth="yes"/>
      <point x="159" y="709"/>
      <point x="55" y="609"/>
      <point x="55" y="347" type="curve" smooth="yes"/>
      <point x="55" y="96"/>
      <point x="160" y="-16"/>
    </contour>
  </outline>
</glyph>
<glyph name="uni019D" format="2">
  <advance width="581"/>
  <unicode hex="019D"/>
  <anchor x="291" y="0" name="bottom"/>
  <anchor x="291" y="693" name="top"/>
  <outline>
    <contour>
      <point x="39" y="-186" type="curve" smooth="yes"/>
      <point x="118" y="-186"/>
      <point x="168" y="-140"/>
      <point x="168" y="-26" type="curve" smooth="yes"/>
      <point x="168" y="531" type="line"/>
      <point x="258" y="373"/>
      <point x="359" y="158"/>
      <point x="424" y="0" type="curve"/>
      <point x="497" y="0" type="line"/>
      <point x="497" y="693" type="line"/>
      <point x="413" y="693" type="line"/>
      <point x="413" y="196" type="line"/>
      <point x="350" y="344"/>
      <point x="260" y="527"/>
      <point x="159" y="693" type="curve"/>
      <point x="84" y="693" type="line"/>
      <point x="84" y="-21" type="line" smooth="yes"/>
      <point x="84" y="-91"/>
      <point x="62" y="-108"/>
      <point x="28" y="-108" type="curve" smooth="yes"/>
      <point x="16" y="-108"/>
      <point x="5" y="-106"/>
      <point x="-6" y="-103" type="curve"/>
      <point x="-19" y="-176" type="line"/>
      <point x="-2" y="-183"/>
      <point x="18" y="-186"/>
    </contour>
  </outline>
</glyph>
<glyph name="uni01BD" format="2">
  <advance width="366"/>
  <unicode hex="01BD"/>
  <anchor x="183" y="0" name="bottom"/>
  <anchor x="183" y="520" name="top"/>
  <outline>
    <contour>
      <point x="140" y="-15" type="curve" smooth="yes"/>
      <point x="245" y="-15"/>
      <point x="324" y="44"/>
      <point x="324" y="152" type="curve" smooth="yes"/>
      <point x="324" y="245"/>
      <point x="257" y="300"/>
      <point x="159" y="313" type="curve"/>
      <point x="159" y="313" type="line"/>
      <point x="162" y="338"/>
      <point x="165" y="379"/>
      <point x="171" y="446" type="curve"/>
      <point x="305" y="446" type="line"/>
      <point x="305" y="520" type="line"/>
      <point x="26" y="520" type="line"/>
      <point x="26" y="445" type="line"/>
      <point x="95" y="445" type="line"/>
      <point x="92" y="383"/>
      <point x="88" y="331"/>
      <point x="78" y="254" type="curve"/>
      <point x="92" y="254" type="line"/>
      <point x="178" y="254"/>
      <point x="238" y="218"/>
      <point x="238" y="154" type="curve" smooth="yes"/>
      <point x="238" y="93"/>
      <point x="193" y="63"/>
      <point x="144" y="63" type="curve" smooth="yes"/>
      <point x="108" y="63"/>
      <point x="82" y="72"/>
      <point x="56" y="88" type="curve"/>
      <point x="32" y="16" type="line"/>
      <point x="65" y="-4"/>
      <point x="104" y="-15"/>
    </contour>
  </outline>
</glyph>
<glyph name="uni01BE" format="2">
  <advance width="361"/>
  <unicode hex="01BE"/>
  <anchor x="181" y="0" name="bottom"/>
  <anchor x="181" y="520" name="top"/>
  <outline>
    <contour>
      <point x="165" y="-13" type="curve" smooth="yes"/>
      <point x="269" y="-13"/>
      <point x="324" y="49"/>
      <point x="324" y="140" type="curve" smooth="yes"/>
      <point x="324" y="227"/>
      <point x="270" y="261"/>
      <point x="220" y="292" type="curve" smooth="yes"/>
      <point x="178" y="318"/>
      <point x="140" y="341"/>
      <point x="140" y="410" type="curve" smooth="yes"/>
      <point x="140" y="451" type="line"/>
      <point x="297" y="451" type="line"/>
      <point x="297" y="525" type="line"/>
      <point x="140" y="525" type="line"/>
      <point x="140" y="681" type="line"/>
      <point x="54" y="666" type="line"/>
      <point x="54" y="410" type="line" smooth="yes"/>
      <point x="54" y="314"/>
      <point x="97" y="275"/>
      <point x="152" y="242" type="curve" smooth="yes"/>
      <point x="191" y="218"/>
      <point x="237" y="197"/>
      <point x="237" y="139" type="curve" smooth="yes"/>
      <point x="237" y="93"/>
      <point x="210" y="61"/>
      <point x="160" y="61" type="curve" smooth="yes"/>
      <point x="119" y="61"/>
      <point x="83" y="78"/>
      <point x="63" y="89" type="curve"/>
      <point x="45" y="18" type="line"/>
      <point x="66" y="6"/>
      <point x="112" y="-13"/>
    </contour>
  </outline>
</glyph>
<glyph name="uni01EA" format="2">
  <advance width="605"/>
  <unicode hex="01EA"/>
  <anchor x="303" y="693" name="top"/>
  <outline>
    <contour>
      <point x="356" y="-187" type="curve" smooth="yes"/>
      <point x="378" y="-187"/>
      <point x="400" y="-183"/>
      <point x="418" y="-176" type="curve"/>
      <point x="413" y="-113" type="line"/>
      <point x="401" y="-118"/>
      <point x="389" y="-120"/>
      <point x="377" y="-120" type="curve" smooth="yes"/>
      <point x="353" y="-120"/>
      <point x="334" y="-109"/>
      <point x="334" y="-79" type="curve" smooth="yes"/>
      <point x="334" y="-57"/>
      <point x="348" y="-41"/>
      <point x="369" y="-25" type="curve" smooth="yes"/>
      <point x="387" y="-11"/>
      <point x="411" y="4"/>
      <point x="433" y="22" type="curve" smooth="yes"/>
      <point x="499" y="77"/>
      <point x="549" y="162"/>
      <point x="549" y="346" type="curve" smooth="yes"/>
      <point x="549" y="562"/>
      <point x="472" y="709"/>
      <point x="303" y="709" type="curve" smooth="yes"/>
      <point x="134" y="709"/>
      <point x="56" y="562"/>
      <point x="56" y="346" type="curve" smooth="yes"/>
      <point x="56" y="135"/>
      <point x="131" y="-9"/>
      <point x="294" y="-14" type="curve" smooth="yes"/>
      <point x="294" y="-14"/>
      <point x="295" y="-14"/>
      <point x="296" y="-14" type="curve"/>
      <point x="270" y="-40"/>
      <point x="256" y="-68"/>
      <point x="256" y="-101" type="curve" smooth="yes"/>
      <point x="256" y="-154"/>
      <point x="298" y="-187"/>
    </contour>
    <contour>
      <point x="303" y="64" type="curve" smooth="yes"/>
      <point x="194" y="64"/>
      <point x="152" y="178"/>
      <point x="152" y="346" type="curve" smooth="yes"/>
      <point x="152" y="514"/>
      <point x="194" y="630"/>
      <point x="303" y="630" type="curve" smooth="yes"/>
      <point x="413" y="630"/>
      <point x="453" y="514"/>
      <point x="453" y="346" type="curve" smooth="yes"/>
      <point x="453" y="178"/>
      <point x="413" y="64"/>
    </contour>
  </outline>
</glyph>
<glyph name="uni01F6" format="2">
  <advance width="843"/>
  <unicode hex="01F6"/>
  <outline>
    <contour>
      <point x="586" y="-11" type="curve" smooth="yes"/>
      <point x="707" y="-11"/>
      <point x="771" y="71"/>
      <point x="771" y="192" type="curve" smooth="yes"/>
      <point x="771" y="524" type="line"/>
      <point x="681" y="524" type="line"/>
      <point x="681" y="192" type="line" smooth="yes"/>
      <point x="681" y="116"/>
      <point x="654" y="65"/>
      <point x="586" y="65" type="curve" smooth="yes"/>
      <point x="519" y="65"/>
      <point x="492" y="116"/>
      <point x="492" y="191" type="curve" smooth="yes"/>
      <point x="492" y="693" type="line"/>
      <point x="402" y="693" type="line"/>
      <point x="402" y="400" type="line"/>
      <point x="174" y="400" type="line"/>
      <point x="174" y="693" type="line"/>
      <point x="84" y="693" type="line"/>
      <point x="84" y="0" type="line"/>
      <point x="174" y="0" type="line"/>
      <point x="174" y="322" type="line"/>
      <point x="402" y="322" type="line"/>
      <point x="402" y="192" type="line" smooth="yes"/>
      <point x="402" y="63"/>
      <point x="466" y="-11"/>
    </contour>
  </outline>
</glyph>
<glyph name="uni021C" format="2">
  <advance width="419"/>
  <unicode hex="021C"/>
  <outline>
    <contour>
      <point x="39" y="-183" type="curve" smooth="yes"/>
      <point x="246" y="-183"/>
      <point x="378" y="-94"/>
      <point x="378" y="101" type="curve" smooth="yes"/>
      <point x="378" y="199"/>
      <point x="329" y="276"/>
      <point x="262" y="304" type="curve"/>
      <point x="323" y="341"/>
      <point x="357" y="414"/>
      <point x="357" y="498" type="curve" smooth="yes"/>
      <point x="357" y="622"/>
      <point x="280" y="709"/>
      <point x="152" y="709" type="curve" smooth="yes"/>
      <point x="106" y="709"/>
      <point x="59" y="696"/>
      <point x="21" y="675" type="curve"/>
      <point x="47" y="603" type="line"/>
      <point x="78" y="621"/>
      <point x="109" y="629"/>
      <point x="149" y="629" type="curve" smooth="yes"/>
      <point x="222" y="629"/>
      <point x="264" y="572"/>
      <point x="264" y="496" type="curve" smooth="yes"/>
      <point x="264" y="396"/>
      <point x="209" y="337"/>
      <point x="117" y="337" type="curve" smooth="yes"/>
      <point x="82" y="337" type="line"/>
      <point x="82" y="262" type="line"/>
      <point x="120" y="262" type="line" smooth="yes"/>
      <point x="218" y="262"/>
      <point x="285" y="207"/>
      <point x="285" y="99" type="curve" smooth="yes"/>
      <point x="285" y="-38"/>
      <point x="192" y="-101"/>
      <point x="39" y="-101" type="curve"/>
      <point x="30" y="-101"/>
      <point x="22" y="-101"/>
      <point x="13" y="-101" type="curve"/>
      <point x="16" y="-182" type="line"/>
      <point x="24" y="-183"/>
      <point x="31" y="-183"/>
    </contour>
  </outline>
</glyph>
<glyph name="uni0221" format="2">
  <advance width="553"/>
  <unicode hex="0221"/>
  <outline>
    <contour>
      <point x="437" y="-185" type="curve" smooth="yes"/>
      <point x="527" y="-185"/>
      <point x="563" y="-108"/>
      <point x="563" y="-41" type="curve" smooth="yes"/>
      <point x="563" y="35"/>
      <point x="526" y="101"/>
      <point x="455" y="101" type="curve" smooth="yes"/>
      <point x="430" y="101"/>
      <point x="409" y="94"/>
      <point x="391" y="82" type="curve"/>
      <point x="391" y="776" type="line"/>
      <point x="305" y="761" type="line"/>
      <point x="305" y="521" type="line"/>
      <point x="284" y="531"/>
      <point x="264" y="538"/>
      <point x="233" y="538" type="curve" smooth="yes"/>
      <point x="105" y="538"/>
      <point x="49" y="431"/>
      <point x="49" y="264" type="curve" smooth="yes"/>
      <point x="49" y="80"/>
      <point x="111" y="-13"/>
      <point x="254" y="-13" type="curve" smooth="yes"/>
      <point x="271" y="-13"/>
      <point x="288" y="-11"/>
      <point x="305" y="-9" type="curve"/>
      <point x="305" y="-15"/>
      <point x="305" y="-20"/>
      <point x="305" y="-26" type="curve"/>
      <point x="226" y="-155" type="line"/>
      <point x="274" y="-188" type="line"/>
      <point x="322" y="-114" type="line"/>
      <point x="345" y="-161"/>
      <point x="389" y="-185"/>
    </contour>
    <contour>
      <point x="254" y="63" type="curve" smooth="yes"/>
      <point x="177" y="63"/>
      <point x="139" y="121"/>
      <point x="139" y="264" type="curve" smooth="yes"/>
      <point x="139" y="413"/>
      <point x="177" y="462"/>
      <point x="243" y="462" type="curve" smooth="yes"/>
      <point x="265" y="462"/>
      <point x="287" y="456"/>
      <point x="305" y="446" type="curve"/>
      <point x="305" y="70" type="line"/>
      <point x="287" y="65"/>
      <point x="269" y="63"/>
    </contour>
    <contour>
      <point x="442" y="-125" type="curve" smooth="yes"/>
      <point x="410" y="-125"/>
      <point x="391" y="-90"/>
      <point x="391" y="-36" type="curve" smooth="yes"/>
      <point x="391" y="9" type="line"/>
      <point x="405" y="29"/>
      <point x="423" y="41"/>
      <point x="444" y="41" type="curve" smooth="yes"/>
      <point x="478" y="41"/>
      <point x="493" y="8"/>
      <point x="493" y="-44" type="curve" smooth="yes"/>
      <point x="493" y="-100"/>
      <point x="475" y="-125"/>
    </contour>
  </outline>
</glyph>
<glyph name="uni0238" format="2">
  <advance width="690"/>
  <unicode hex="0238"/>
  <outline>
    <contour>
      <point x="252" y="-13" type="curve" smooth="yes"/>
      <point x="283" y="-13"/>
      <point x="316" y="-6"/>
      <point x="345" y="5" type="curve"/>
      <point x="374" y="-6"/>
      <point x="407" y="-13"/>
      <point x="438" y="-13" type="curve" smooth="yes"/>
      <point x="577" y="-13"/>
      <point x="642" y="80"/>
      <point x="642" y="264" type="curve" smooth="yes"/>
      <point x="642" y="431"/>
      <point x="589" y="538"/>
      <point x="459" y="538" type="curve" smooth="yes"/>
      <point x="429" y="538"/>
      <point x="408" y="531"/>
      <point x="387" y="521" type="curve"/>
      <point x="387" y="776" type="line"/>
      <point x="303" y="761" type="line"/>
      <point x="303" y="521" type="line"/>
      <point x="282" y="531"/>
      <point x="261" y="538"/>
      <point x="231" y="538" type="curve" smooth="yes"/>
      <point x="104" y="538"/>
      <point x="48" y="431"/>
      <point x="48" y="264" type="curve" smooth="yes"/>
      <point x="48" y="80"/>
      <point x="110" y="-13"/>
    </contour>
    <contour>
      <point x="252" y="63" type="curve" smooth="yes"/>
      <point x="175" y="63"/>
      <point x="137" y="121"/>
      <point x="137" y="264" type="curve" smooth="yes"/>
      <point x="137" y="413"/>
      <point x="175" y="462"/>
      <point x="241" y="462" type="curve" smooth="yes"/>
      <point x="263" y="462"/>
      <point x="285" y="456"/>
      <point x="303" y="446" type="curve"/>
      <point x="303" y="70" type="line"/>
      <point x="285" y="65"/>
      <point x="267" y="63"/>
    </contour>
    <contour>
      <point x="438" y="63" type="curve" smooth="yes"/>
      <point x="423" y="63"/>
      <point x="405" y="65"/>
      <point x="387" y="70" type="curve"/>
      <point x="387" y="446" type="line"/>
      <point x="405" y="456"/>
      <point x="427" y="462"/>
      <point x="449" y="462" type="curve" smooth="yes"/>
      <point x="515" y="462"/>
      <point x="553" y="413"/>
      <point x="553" y="264" type="curve" smooth="yes"/>
      <point x="553" y="121"/>
      <point x="515" y="63"/>
    </contour>
  </outline>
</glyph>
<glyph name="uni0241" format="2">
  <advance width="382"/>
  <unicode hex="0241"/>
  <outline>
    <contour>
      <point x="100" y="0" type="line"/>
      <point x="190" y="0" type="line"/>
      <point x="190" y="181" type="line" smooth="yes"/>
      <point x="190" y="263"/>
      <point x="226" y="306"/>
      <point x="264" y="348" type="curve" smooth="yes"/>
      <point x="308" y="394"/>
      <point x="354" y="439"/>
      <point x="354" y="535" type="curve" smooth="yes"/>
      <point x="354" y="653"/>
      <point x="268" y="709"/>
      <point x="155" y="709" type="curve" smooth="yes"/>
      <point x="101" y="709"/>
      <point x="51" y="692"/>
      <point x="12" y="667" type="curve"/>
      <point x="38" y="596" type="line"/>
      <point x="75" y="618"/>
      <point x="112" y="630"/>
      <point x="151" y="630" type="curve" smooth="yes"/>
      <point x="217" y="630"/>
      <point x="262" y="593"/>
      <point x="262" y="533" type="curve" smooth="yes"/>
      <point x="262" y="476"/>
      <point x="237" y="444"/>
      <point x="207" y="413" type="curve" smooth="yes"/>
      <point x="160" y="363"/>
      <point x="100" y="316"/>
      <point x="100" y="181" type="curve"/>
    </contour>
  </outline>
</glyph>
<glyph name="uni0244" format="2">
  <advance width="549"/>
  <unicode hex="0244"/>
  <anchor x="275" y="0" name="bottom"/>
  <anchor x="275" y="693" name="top"/>
  <outline>
    <contour>
      <point x="272" y="-15" type="curve" smooth="yes"/>
      <point x="403" y="-15"/>
      <point x="471" y="59"/>
      <point x="471" y="214" type="curve" smooth="yes"/>
      <point x="471" y="345" type="line"/>
      <point x="539" y="345" type="line"/>
      <point x="539" y="411" type="line"/>
      <point x="471" y="411" type="line"/>
      <point x="471" y="693" type="line"/>
      <point x="381" y="693" type="line"/>
      <point x="381" y="411" type="line"/>
      <point x="168" y="411" type="line"/>
      <point x="168" y="693" type="line"/>
      <point x="78" y="693" type="line"/>
      <point x="78" y="411" type="line"/>
      <point x="10" y="411" type="line"/>
      <point x="10" y="345" type="line"/>
      <point x="78" y="345" type="line"/>
      <point x="78" y="214" type="line" smooth="yes"/>
      <point x="78" y="56"/>
      <point x="144" y="-15"/>
    </contour>
    <contour>
      <point x="274" y="64" type="curve" smooth="yes"/>
      <point x="195" y="64"/>
      <point x="168" y="117"/>
      <point x="168" y="222" type="curve" smooth="yes"/>
      <point x="168" y="345" type="line"/>
      <point x="381" y="345" type="line"/>
      <point x="381" y="222" type="line" smooth="yes"/>
      <point x="381" y="120"/>
      <point x="357" y="64"/>
    </contour>
  </outline>
</glyph>
<glyph name="uni0249" format="2">
  <advance width="242"/>
  <unicode hex="0249"/>
  <anchor x="121" y="0" name="bottom"/>
  <anchor x="121" y="520" name="top"/>
  <outline>
    <contour>
      <point x="25" y="-186" type="curve" smooth="yes"/>
      <point x="109" y="-186"/>
      <point x="164" y="-140"/>
      <point x="164" y="-26" type="curve" smooth="yes"/>
      <point x="164" y="242" type="line"/>
      <point x="227" y="242" type="line"/>
      <point x="227" y="308" type="line"/>
      <point x="164" y="308" type="line"/>
      <point x="164" y="525" type="line"/>
      <point x="78" y="525" type="line"/>
      <point x="78" y="308" type="line"/>
      <point x="-7" y="308" type="line"/>
      <point x="-7" y="242" type="line"/>
      <point x="78" y="242" type="line"/>
      <point x="78" y="-21" type="line" smooth="yes"/>
      <point x="78" y="-91"/>
      <point x="54" y="-108"/>
      <point x="16" y="-108" type="curve" smooth="yes"/>
      <point x="2" y="-108"/>
      <point x="-10" y="-106"/>
      <point x="-22" y="-103" type="curve"/>
      <point x="-34" y="-176" type="line"/>
      <point x="-16" y="-183"/>
      <point x="4" y="-186"/>
    </contour>
    <contour>
      <point x="121" y="618" type="curve" smooth="yes"/>
      <point x="152" y="618"/>
      <point x="177" y="641"/>
      <point x="177" y="675" type="curve" smooth="yes"/>
      <point x="177" y="709"/>
      <point x="152" y="732"/>
      <point x="121" y="732" type="curve" smooth="yes"/>
      <point x="90" y="732"/>
      <point x="65" y="709"/>
      <point x="65" y="675" type="curve" smooth="yes"/>
      <point x="65" y="641"/>
      <point x="90" y="618"/>
    </contour>
  </outline>
</glyph>
<glyph name="breve" format="2">
  <advance width="314"/>
  <unicode hex="02D8"/>
  <outline>
    <contour>
      <point x="157" y="615" type="curve" smooth="yes"/>
      <point x="230" y="615"/>
      <point x="272" y="666"/>
      <point x="272" y="754" type="curve"/>
      <point x="214" y="754" type="line"/>
      <point x="212" y="710"/>
      <point x="199" y="673"/>
      <point x="157" y="673" type="curve" smooth="yes"/>
      <point x="115" y="673"/>
      <point x="102" y="710"/>
      <point x="100" y="754" type="curve"/>
      <point x="42" y="754" type="line"/>
      <point x="42" y="666"/>
      <point x="83" y="615"/>
    </contour>
  </outline>
</glyph>
<glyph name="dotaccent" format="2">
  <advance width="314"/>
  <unicode hex="02D9"/>
  <outline>
    <contour>
      <point x="157" y="618" type="curve" smooth="yes"/>
      <point x="188" y="618"/>
      <point x="213" y="641"/>
      <point x="213" y="675" type="curve" smooth="yes"/>
      <point x="213" y="709"/>
      <point x="188" y="732"/>
      <point x="157" y="732" type="curve" smooth="yes"/>
      <point x="126" y="732"/>
      <point x="101" y="709"/>
      <point x="101" y="675" type="curve" smooth="yes"/>
      <point x="101" y="641"/>
      <point x="126" y="618"/>
    </contour>
  </outline>
</glyph>
<glyph name="dieresistonos" format="2">
  <advance width="314"/>
  <unicode hex="0385"/>
  <anchor x="157" y="776" name="_top"/>
  <outline>
    <contour>
      <point x="140" y="588" type="line"/>
      <point x="234" y="754" type="line"/>
      <point x="166" y="788" type="line"/>
      <point x="90" y="613" type="line"/>
    </contour>
    <contour>
      <point x="31" y="622" type="curve" smooth="yes"/>
      <point x="60" y="622"/>
      <point x="83" y="643"/>
      <point x="83" y="675" type="curve" smooth="yes"/>
      <point x="83" y="707"/>
      <point x="60" y="728"/>
      <point x="31" y="728" type="curve" smooth="yes"/>
      <point x="2" y="728"/>
      <point x="-21" y="707"/>
      <point x="-21" y="675" type="curve" smooth="yes"/>
      <point x="-21" y="643"/>
      <point x="2" y="622"/>
    </contour>
    <contour>
      <point x="283" y="622" type="curve" smooth="yes"/>
      <point x="312" y="622"/>
      <point x="335" y="643"/>
      <point x="335" y="675" type="curve" smooth="yes"/>
      <point x="335" y="707"/>
      <point x="312" y="728"/>
      <point x="283" y="728" type="curve" smooth="yes"/>
      <point x="254" y="728"/>
      <point x="231" y="707"/>
      <point x="231" y="675" type="curve" smooth="yes"/>
      <point x="231" y="643"/>
      <point x="254" y="622"/>
    </contour>
  </outline>
</glyph>
<glyph name="Lambda" format="2">
  <advance width="497"/>
  <unicode hex="039B"/>
  <outline>
    <contour>
      <point x="20" y="0" type="curve"/>
      <point x="111" y="0" type="line"/>
      <point x="145" y="206"/>
      <point x="199" y="417"/>
      <point x="247" y="586" type="curve"/>
      <point x="295" y="417"/>
      <point x="349" y="206"/>
      <point x="383" y="0" type="curve"/>
      <point x="477" y="0" type="line"/>
      <point x="419" y="292"/>
      <point x="359" y="494"/>
      <point x="297" y="693" type="curve"/>
      <point x="200" y="693" type="line"/>
      <point x="138" y="494"/>
      <point x="78" y="292"/>
    </contour>
  </outline>
</glyph>
<glyph name="lambda" format="2">
  <advance width="399"/>
  <unicode hex="03BB"/>
  <outline>
    <contour>
      <point x="7" y="0" type="curve"/>
      <point x="94" y="0" type="line"/>
      <point x="120" y="127"/>
      <point x="165" y="297"/>
      <point x="203" y="420" type="curve"/>
      <point x="234" y="311"/>
      <point x="272" y="123"/>
      <point x="294" y="0" type="curve"/>
      <point x="382" y="0" type="line"/>
      <point x="328" y="276"/>
      <point x="252" y="556"/>
      <point x="213" y="657" type="curve" smooth="yes"/>
      <point x="181" y="741"/>
      <point x="143" y="774"/>
      <point x="59" y="774" type="curve" smooth="yes"/>
      <point x="44" y="774"/>
      <point x="26" y="771"/>
      <point x="9" y="767" type="curve"/>
      <point x="19" y="691" type="line"/>
      <point x="28" y="693"/>
      <point x="39" y="695"/>
      <point x="46" y="695" type="curve" smooth="yes"/>
      <point x="93" y="695"/>
      <point x="122" y="685"/>
      <point x="155" y="570" type="curve" smooth="yes"/>
      <point x="158" y="558"/>
      <point x="161" y="545"/>
      <point x="165" y="530" type="curve"/>
      <point x="112" y="387"/>
      <point x="50" y="187"/>
    </contour>
  </outline>
</glyph>
<glyph name="xi" format="2">
  <advance width="380"/>
  <unicode hex="03BE"/>
  <outline>
    <contour>
      <point x="323" y="-188" type="line"/>
      <point x="356" y="-148"/>
      <point x="375" y="-103"/>
      <point x="375" y="-56" type="curve" smooth="yes"/>
      <point x="375" y="20"/>
      <point x="331" y="53"/>
      <point x="263" y="74" type="curve" smooth="yes"/>
      <point x="184" y="99"/>
      <point x="128" y="117"/>
      <point x="128" y="227" type="curve" smooth="yes"/>
      <point x="128" y="329"/>
      <point x="178" y="380"/>
      <point x="274" y="380" type="curve" smooth="yes"/>
      <point x="315" y="380" type="line"/>
      <point x="315" y="453" type="line"/>
      <point x="277" y="453" type="line" smooth="yes"/>
      <point x="200" y="453"/>
      <point x="145" y="495"/>
      <point x="145" y="580" type="curve" smooth="yes"/>
      <point x="145" y="661"/>
      <point x="187" y="702"/>
      <point x="251" y="702" type="curve" smooth="yes"/>
      <point x="288" y="702"/>
      <point x="311" y="693"/>
      <point x="336" y="681" type="curve"/>
      <point x="355" y="751" type="line"/>
      <point x="323" y="767"/>
      <point x="283" y="776"/>
      <point x="248" y="776" type="curve" smooth="yes"/>
      <point x="146" y="776"/>
      <point x="59" y="712"/>
      <point x="59" y="587" type="curve" smooth="yes"/>
      <point x="59" y="502"/>
      <point x="86" y="452"/>
      <point x="153" y="418" type="curve"/>
      <point x="83" y="386"/>
      <point x="40" y="326"/>
      <point x="40" y="222" type="curve" smooth="yes"/>
      <point x="40" y="84"/>
      <point x="105" y="40"/>
      <point x="210" y="9" type="curve" smooth="yes"/>
      <point x="274" y="-10"/>
      <point x="289" y="-34"/>
      <point x="289" y="-72" type="curve" smooth="yes"/>
      <point x="289" y="-99"/>
      <point x="276" y="-126"/>
      <point x="254" y="-159" type="curve"/>
    </contour>
  </outline>
</glyph>
<glyph name="pi" format="2">
  <advance width="479"/>
  <unicode hex="03C0"/>
  <outline>
    <contour>
      <point x="78" y="0" type="line"/>
      <point x="164" y="0" type="line"/>
      <point x="164" y="451" type="line"/>
      <point x="315" y="451" type="line"/>
      <point x="315" y="0" type="line"/>
      <point x="401" y="0" type="line"/>
      <point x="401" y="525" type="line"/>
      <point x="78" y="525" type="line"/>
    </contour>
  </outline>
</glyph>
<glyph name="afii10021" format="2">
  <advance width="581"/>
  <unicode hex="0414"/>
  <outline>
    <contour>
      <point x="5" y="-185" type="line"/>
      <point x="91" y="-185" type="line"/>
      <point x="91" y="0" type="line"/>
      <point x="465" y="0" type="line"/>
      <point x="465" y="-185" type="line"/>
      <point x="551" y="-185" type="line"/>
      <point x="551" y="76" type="line"/>
      <point x="485" y="76" type="line"/>
      <point x="485" y="693" type="line"/>
      <point x="165" y="693" type="line"/>
      <point x="165" y="393"/>
      <point x="150" y="210"/>
      <point x="66" y="76" type="curve"/>
      <point x="5" y="76" type="line"/>
    </contour>
    <contour>
      <point x="167" y="76" type="line"/>
      <point x="238" y="219"/>
      <point x="255" y="400"/>
      <point x="255" y="616" type="curve"/>
      <point x="395" y="616" type="line"/>
      <point x="395" y="76" type="line"/>
    </contour>
  </outline>
</glyph>
<glyph name="afii10044" format="2">
  <advance width="545"/>
  <unicode hex="042A"/>
  <anchor x="273" y="693" name="top"/>
  <outline>
    <contour>
      <point x="278" y="-7" type="curve" smooth="yes"/>
      <point x="418" y="-7"/>
      <point x="512" y="56"/>
      <point x="512" y="214" type="curve" smooth="yes"/>
      <point x="512" y="375"/>
      <point x="415" y="436"/>
      <point x="272" y="436" type="curve" smooth="yes"/>
      <point x="258" y="436"/>
      <point x="243" y="436"/>
      <point x="229" y="436" type="curve"/>
      <point x="229" y="693" type="line"/>
      <point x="10" y="693" type="line"/>
      <point x="10" y="617" type="line"/>
      <point x="139" y="617" type="line"/>
      <point x="139" y="10" type="line"/>
      <point x="185" y="-1"/>
      <point x="232" y="-7"/>
    </contour>
    <contour>
      <point x="278" y="72" type="curve" smooth="yes"/>
      <point x="261" y="72"/>
      <point x="244" y="73"/>
      <point x="229" y="75" type="curve"/>
      <point x="229" y="357" type="line"/>
      <point x="241" y="357"/>
      <point x="254" y="357"/>
      <point x="266" y="357" type="curve" smooth="yes"/>
      <point x="360" y="357"/>
      <point x="417" y="320"/>
      <point x="417" y="214" type="curve" smooth="yes"/>
      <point x="417" y="106"/>
      <point x="360" y="72"/>
    </contour>
  </outline>
</glyph>
<glyph name="afii10066" format="2">
  <advance width="472"/>
  <unicode hex="0431"/>
  <outline>
    <contour>
      <point x="248" y="-13" type="curve" smooth="yes"/>
      <point x="368" y="-13"/>
      <point x="425" y="82"/>
      <point x="425" y="242" type="curve" smooth="yes"/>
      <point x="425" y="415"/>
      <point x="361" y="489"/>
      <point x="257" y="489" type="curve" smooth="yes"/>
      <point x="222" y="489"/>
      <point x="186" y="481"/>
      <point x="157" y="464" type="curve"/>
      <point x="168" y="562"/>
      <point x="189" y="643"/>
      <point x="284" y="674" type="curve" smooth="yes"/>
      <point x="318" y="685"/>
      <point x="356" y="689"/>
      <point x="396" y="699" type="curve"/>
      <point x="382" y="776" type="line"/>
      <point x="350" y="768"/>
      <point x="312" y="764"/>
      <point x="274" y="753" type="curve" smooth="yes"/>
      <point x="78" y="699"/>
      <point x="65" y="515"/>
      <point x="65" y="314" type="curve" smooth="yes"/>
      <point x="65" y="121"/>
      <point x="108" y="-13"/>
    </contour>
    <contour>
      <point x="252" y="62" type="curve" smooth="yes"/>
      <point x="176" y="62"/>
      <point x="154" y="152"/>
      <point x="154" y="311" type="curve" smooth="yes"/>
      <point x="154" y="336"/>
      <point x="154" y="360"/>
      <point x="155" y="383" type="curve"/>
      <point x="177" y="400"/>
      <point x="207" y="414"/>
      <point x="245" y="414" type="curve" smooth="yes"/>
      <point x="308" y="414"/>
      <point x="335" y="352"/>
      <point x="335" y="242" type="curve" smooth="yes"/>
      <point x="335" y="110"/>
      <point x="307" y="62"/>
    </contour>
  </outline>
</glyph>
<glyph name="uni0462" format="2">
  <advance width="551"/>
  <unicode hex="0462"/>
  <outline>
    <contour>
      <point x="282" y="-7" type="curve" smooth="yes"/>
      <point x="422" y="-7"/>
      <point x="516" y="56"/>
      <point x="516" y="214" type="curve" smooth="yes"/>
      <point x="516" y="375"/>
      <point x="419" y="436"/>
      <point x="276" y="436" type="curve" smooth="yes"/>
      <point x="262" y="436"/>
      <point x="247" y="436"/>
      <point x="233" y="436" type="curve"/>
      <point x="233" y="591" type="line"/>
      <point x="371" y="591" type="line"/>
      <point x="371" y="657" type="line"/>
      <point x="233" y="657" type="line"/>
      <point x="233" y="738" type="line"/>
      <point x="143" y="738" type="line"/>
      <point x="143" y="657" type="line"/>
      <point x="15" y="657" type="line"/>
      <point x="15" y="591" type="line"/>
      <point x="143" y="591" type="line"/>
      <point x="143" y="10" type="line"/>
      <point x="189" y="-1"/>
      <point x="236" y="-7"/>
    </contour>
    <contour>
      <point x="282" y="72" type="curve" smooth="yes"/>
      <point x="265" y="72"/>
      <point x="248" y="73"/>
      <point x="233" y="75" type="curve"/>
      <point x="233" y="357" type="line"/>
      <point x="245" y="357"/>
      <point x="258" y="357"/>
      <point x="270" y="357" type="curve" smooth="yes"/>
      <point x="364" y="357"/>
      <point x="421" y="320"/>
      <point x="421" y="214" type="curve" smooth="yes"/>
      <point x="421" y="106"/>
      <point x="364" y="72"/>
    </contour>
  </outline>
</glyph>
<glyph name="uni048E" format="2">
  <advance width="485"/>
  <unicode hex="048E"/>
  <outline>
    <contour>
      <point x="84" y="0" type="line"/>
      <point x="174" y="0" type="line"/>
      <point x="174" y="257" type="line"/>
      <point x="216" y="257" type="line" smooth="yes"/>
      <point x="242" y="257"/>
      <point x="266" y="259"/>
      <point x="289" y="263" type="curve"/>
      <point x="332" y="158" type="line"/>
      <point x="391" y="182" type="line"/>
      <point x="349" y="283" type="line"/>
      <point x="413" y="315"/>
      <point x="452" y="377"/>
      <point x="452" y="479" type="curve" smooth="yes"/>
      <point x="452" y="637"/>
      <point x="359" y="700"/>
      <point x="221" y="700" type="curve" smooth="yes"/>
      <point x="176" y="700"/>
      <point x="129" y="694"/>
      <point x="84" y="683" type="curve"/>
    </contour>
    <contour>
      <point x="174" y="336" type="line"/>
      <point x="174" y="618" type="line"/>
      <point x="189" y="620"/>
      <point x="205" y="621"/>
      <point x="222" y="621" type="curve" smooth="yes"/>
      <point x="302" y="621"/>
      <point x="357" y="587"/>
      <point x="357" y="479" type="curve" smooth="yes"/>
      <point x="357" y="425"/>
      <point x="342" y="389"/>
      <point x="316" y="366" type="curve"/>
      <point x="276" y="465" type="line"/>
      <point x="217" y="440" type="line"/>
      <point x="258" y="340" type="line"/>
      <point x="243" y="337"/>
      <point x="227" y="336"/>
      <point x="210" y="336" type="curve" smooth="yes"/>
    </contour>
  </outline>
</glyph>
<glyph name="uni0493" format="2">
  <advance width="333"/>
  <unicode hex="0493"/>
  <outline>
    <contour>
      <point x="75" y="0" type="line"/>
      <point x="161" y="0" type="line"/>
      <point x="161" y="211" type="line"/>
      <point x="264" y="211" type="line"/>
      <point x="264" y="277" type="line"/>
      <point x="161" y="277" type="line"/>
      <point x="161" y="451" type="line"/>
      <point x="319" y="451" type="line"/>
      <point x="319" y="525" type="line"/>
      <point x="75" y="525" type="line"/>
      <point x="75" y="277" type="line"/>
      <point x="12" y="277" type="line"/>
      <point x="12" y="211" type="line"/>
      <point x="75" y="211" type="line"/>
    </contour>
  </outline>
</glyph>
<glyph name="uni0497" format="2">
  <advance width="597"/>
  <unicode hex="0497"/>
  <outline>
    <contour>
      <point x="503" y="-145" type="line"/>
      <point x="587" y="-145" type="line"/>
      <point x="587" y="70" type="line"/>
      <point x="518" y="70" type="line"/>
      <point x="486" y="145"/>
      <point x="442" y="225"/>
      <point x="401" y="281" type="curve"/>
      <point x="443" y="350"/>
      <point x="483" y="429"/>
      <point x="527" y="525" type="curve"/>
      <point x="439" y="525" type="line"/>
      <point x="413" y="464"/>
      <point x="361" y="365"/>
      <point x="323" y="300" type="curve"/>
      <point x="323" y="525" type="line"/>
      <point x="236" y="525" type="line"/>
      <point x="236" y="300" type="line"/>
      <point x="198" y="365"/>
      <point x="146" y="464"/>
      <point x="120" y="525" type="curve"/>
      <point x="32" y="525" type="line"/>
      <point x="76" y="429"/>
      <point x="115" y="350"/>
      <point x="157" y="281" type="curve"/>
      <point x="102" y="207"/>
      <point x="44" y="90"/>
      <point x="13" y="0" type="curve"/>
      <point x="105" y="0" type="line"/>
      <point x="136" y="86"/>
      <point x="195" y="198"/>
      <point x="236" y="255" type="curve"/>
      <point x="236" y="0" type="line"/>
      <point x="323" y="0" type="line"/>
      <point x="323" y="255" type="line"/>
      <point x="364" y="198"/>
      <point x="422" y="86"/>
      <point x="454" y="0" type="curve"/>
      <point x="503" y="0" type="line"/>
    </contour>
  </outline>
</glyph>
<glyph name="uni049D" format="2">
  <advance width="466"/>
  <unicode hex="049D"/>
  <outline>
    <contour>
      <point x="78" y="0" type="line"/>
      <point x="164" y="0" type="line"/>
      <point x="164" y="241" type="line"/>
      <point x="208" y="241" type="line"/>
      <point x="208" y="128" type="line"/>
      <point x="268" y="128" type="line"/>
      <point x="268" y="241" type="line"/>
      <point x="301" y="180"/>
      <point x="343" y="79"/>
      <point x="367" y="0" type="curve"/>
      <point x="454" y="0" type="line"/>
      <point x="427" y="90"/>
      <point x="376" y="208"/>
      <point x="330" y="282" type="curve"/>
      <point x="365" y="351"/>
      <point x="400" y="429"/>
      <point x="437" y="525" type="curve"/>
      <point x="352" y="525" type="line"/>
      <point x="332" y="470"/>
      <point x="297" y="381"/>
      <point x="268" y="317" type="curve"/>
      <point x="268" y="418" type="line"/>
      <point x="208" y="418" type="line"/>
      <point x="208" y="315" type="line"/>
      <point x="164" y="315" type="line"/>
      <point x="164" y="525" type="line"/>
      <point x="78" y="525" type="line"/>
    </contour>
  </outline>
</glyph>
<glyph name="uni04A8" format="2">
  <advance width="618"/>
  <unicode hex="04A8"/>
  <outline>
    <contour>
      <point x="547" y="-184" type="curve"/>
      <point x="568" y="-114" type="line"/>
      <point x="568" y="-114"/>
      <point x="568" y="-114"/>
      <point x="568" y="-114" type="curve"/>
      <point x="493" y="-88"/>
      <point x="443" y="-53"/>
      <point x="408" y="2" type="curve"/>
      <point x="506" y="46"/>
      <point x="564" y="161"/>
      <point x="564" y="296" type="curve" smooth="yes"/>
      <point x="564" y="425"/>
      <point x="512" y="513"/>
      <point x="411" y="513" type="curve" smooth="yes"/>
      <point x="301" y="513"/>
      <point x="257" y="415"/>
      <point x="257" y="258" type="curve" smooth="yes"/>
      <point x="257" y="209"/>
      <point x="264" y="133"/>
      <point x="291" y="57" type="curve"/>
      <point x="291" y="57"/>
      <point x="291" y="57"/>
      <point x="291" y="57" type="curve"/>
      <point x="199" y="74"/>
      <point x="147" y="173"/>
      <point x="147" y="343" type="curve" smooth="yes"/>
      <point x="147" y="526"/>
      <point x="218" y="629"/>
      <point x="333" y="629" type="curve" smooth="yes"/>
      <point x="368" y="629"/>
      <point x="398" y="622"/>
      <point x="429" y="608" type="curve"/>
      <point x="454" y="681" type="line"/>
      <point x="419" y="698"/>
      <point x="376" y="708"/>
      <point x="333" y="708" type="curve" smooth="yes"/>
      <point x="173" y="708"/>
      <point x="60" y="587"/>
      <point x="60" y="343" type="curve" smooth="yes"/>
      <point x="60" y="138"/>
      <point x="133" y="-23"/>
      <point x="323" y="-19" type="curve"/>
      <point x="323" y="-19"/>
      <point x="323.0" y="-19.0"/>
      <point x="323" y="-19" type="curve" smooth="yes"/>
      <point x="365.0" y="-94.0"/>
      <point x="441" y="-155"/>
      <point x="547" y="-184" type="curve"/>
      <point x="547" y="-184"/>
      <point x="547" y="-184"/>
    </contour>
    <contour>
      <point x="376" y="69" type="curve"/>
      <point x="355" y="125"/>
      <point x="347" y="189"/>
      <point x="347" y="254" type="curve" smooth="yes"/>
      <point x="347" y="378"/>
      <point x="372" y="432"/>
      <point x="416" y="432" type="curve" smooth="yes"/>
      <point x="452" y="432"/>
      <point x="475" y="394"/>
      <point x="475" y="297" type="curve" smooth="yes"/>
      <point x="475" y="187"/>
      <point x="440" y="101"/>
    </contour>
  </outline>
</glyph>
<glyph name="uni04AC" format="2">
  <advance width="426"/>
  <unicode hex="04AC"/>
  <outline>
    <contour>
      <point x="238" y="-185" type="line"/>
      <point x="324" y="-185" type="line"/>
      <point x="324" y="76" type="line"/>
      <point x="258" y="76" type="line"/>
      <point x="258" y="616" type="line"/>
      <point x="412" y="616" type="line"/>
      <point x="412" y="693" type="line"/>
      <point x="14" y="693" type="line"/>
      <point x="14" y="616" type="line"/>
      <point x="168" y="616" type="line"/>
      <point x="168" y="0" type="line"/>
      <point x="238" y="0" type="line"/>
    </contour>
  </outline>
</glyph>
<glyph name="uni04B1" format="2">
  <advance width="407"/>
  <unicode hex="04B1"/>
  <outline>
    <contour>
      <point x="162" y="-183" type="line"/>
      <point x="248" y="-183" type="line"/>
      <point x="248" y="0" type="line"/>
      <point x="347" y="0" type="line"/>
      <point x="347" y="66" type="line"/>
      <point x="267" y="66" type="line"/>
      <point x="308" y="195"/>
      <point x="358" y="378"/>
      <point x="387" y="525" type="curve"/>
      <point x="301" y="525" type="line"/>
      <point x="279" y="399"/>
      <point x="237" y="214"/>
      <point x="205" y="106" type="curve"/>
      <point x="173" y="214"/>
      <point x="133" y="399"/>
      <point x="111" y="525" type="curve"/>
      <point x="20" y="525" type="line"/>
      <point x="49" y="378"/>
      <point x="97" y="195"/>
      <point x="138" y="66" type="curve"/>
      <point x="63" y="66" type="line"/>
      <point x="63" y="0" type="line"/>
      <point x="162" y="0" type="line"/>
    </contour>
  </outline>
</glyph>
<glyph name="uni04B9" format="2">
  <advance width="440"/>
  <unicode hex="04B9"/>
  <outline>
    <contour>
      <point x="276" y="0" type="line"/>
      <point x="362" y="0" type="line"/>
      <point x="362" y="525" type="line"/>
      <point x="276" y="525" type="line"/>
      <point x="276" y="280" type="line"/>
      <point x="262" y="276"/>
      <point x="249" y="273"/>
      <point x="238" y="271" type="curve"/>
      <point x="238" y="358" type="line"/>
      <point x="176" y="358" type="line"/>
      <point x="176" y="275" type="line"/>
      <point x="136" y="287"/>
      <point x="123" y="325"/>
      <point x="123" y="390" type="curve" smooth="yes"/>
      <point x="123" y="525" type="line"/>
      <point x="37" y="525" type="line"/>
      <point x="37" y="383" type="line" smooth="yes"/>
      <point x="37" y="245"/>
      <point x="98" y="199"/>
      <point x="176" y="194" type="curve"/>
      <point x="176" y="100" type="line"/>
      <point x="238" y="100" type="line"/>
      <point x="238" y="198" type="line"/>
      <point x="251" y="201"/>
      <point x="264" y="204"/>
      <point x="276" y="208" type="curve"/>
    </contour>
  </outline>
</glyph>
<glyph name="uni1FBE" format="2">
  <advance width="314"/>
  <unicode hex="1FBE"/>
  <outline>
    <contour>
      <point x="187" y="-188" type="curve" smooth="yes"/>
      <point x="202" y="-188"/>
      <point x="214" y="-186"/>
      <point x="221" y="-184" type="curve"/>
      <point x="221" y="-132" type="line"/>
      <point x="179" y="-139"/>
      <point x="158" y="-113"/>
      <point x="158" y="-63" type="curve" smooth="yes"/>
      <point x="158" y="-50" type="line"/>
      <point x="84" y="-50" type="line"/>
      <point x="83" y="-57"/>
      <point x="83" y="-67"/>
      <point x="83" y="-71" type="curve" smooth="yes"/>
      <point x="83" y="-155"/>
      <point x="129" y="-188"/>
    </contour>
  </outline>
</glyph>
<glyph name="uni1FC1" format="2">
  <advance width="314"/>
  <unicode hex="1FC1"/>
  <anchor x="158" y="776" name="_top"/>
  <outline>
    <contour>
      <point x="24" y="740" type="curve"/>
      <point x="80" y="740" type="line"/>
      <point x="85" y="775"/>
      <point x="110" y="804"/>
      <point x="156" y="804" type="curve" smooth="yes"/>
      <point x="203" y="804"/>
      <point x="228" y="775"/>
      <point x="233" y="740" type="curve"/>
      <point x="289" y="740" type="line"/>
      <point x="289" y="819"/>
      <point x="230" y="865"/>
      <point x="156" y="865" type="curve" smooth="yes"/>
      <point x="82" y="865"/>
      <point x="24" y="819"/>
    </contour>
    <contour>
      <point x="74" y="592" type="curve" smooth="yes"/>
      <point x="103" y="592"/>
      <point x="126" y="613"/>
      <point x="126" y="645" type="curve" smooth="yes"/>
      <point x="126" y="677"/>
      <point x="103" y="698"/>
      <point x="74" y="698" type="curve" smooth="yes"/>
      <point x="45" y="698"/>
      <point x="22" y="677"/>
      <point x="22" y="645" type="curve" smooth="yes"/>
      <point x="22" y="613"/>
      <point x="45" y="592"/>
    </contour>
    <contour>
      <point x="241" y="592" type="curve" smooth="yes"/>
      <point x="270" y="592"/>
      <point x="293" y="613"/>
      <point x="293" y="645" type="curve" smooth="yes"/>
      <point x="293" y="677"/>
      <point x="270" y="698"/>
      <point x="241" y="698" type="curve" smooth="yes"/>
      <point x="212" y="698"/>
      <point x="189" y="677"/>
      <point x="189" y="645" type="curve" smooth="yes"/>
      <point x="189" y="613"/>
      <point x="212" y="592"/>
    </contour>
  </outline>
</glyph>
<glyph name="quotedblleft" format="2">
  <advance width="392"/>
  <unicode hex="201C"/>
  <outline>
    <contour>
      <point x="62" y="520" type="curve"/>
      <point x="150" y="520" type="line"/>
      <point x="149" y="533"/>
      <point x="148" y="547"/>
      <point x="148" y="562" type="curve" smooth="yes"/>
      <point x="148" y="616"/>
      <point x="156" y="680"/>
      <point x="189" y="740" type="curve"/>
      <point x="128" y="758" type="line"/>
      <point x="87" y="693"/>
      <point x="61" y="623"/>
      <point x="61" y="548" type="curve" smooth="yes"/>
      <point x="61" y="538"/>
      <point x="61" y="530"/>
    </contour>
    <contour>
      <point x="231" y="520" type="curve"/>
      <point x="319" y="520" type="line"/>
      <point x="318" y="533"/>
      <point x="317" y="547"/>
      <point x="317" y="562" type="curve" smooth="yes"/>
      <point x="317" y="616"/>
      <point x="325" y="680"/>
      <point x="358" y="740" type="curve"/>
      <point x="297" y="758" type="line"/>
      <point x="256" y="693"/>
      <point x="230" y="623"/>
      <point x="230" y="548" type="curve" smooth="yes"/>
      <point x="230" y="538"/>
      <point x="230" y="530"/>
    </contour>
  </outline>
</glyph>
<glyph name="Delta" format="2">
  <advance width="514"/>
  <unicode hex="2206"/>
  <outline>
    <contour>
      <point x="20" y="0" type="curve"/>
      <point x="494" y="0" type="line"/>
      <point x="431" y="284"/>
      <point x="377" y="473"/>
      <point x="303" y="695" type="curve"/>
      <point x="213" y="695" type="line"/>
      <point x="138" y="473"/>
      <point x="83" y="284"/>
    </contour>
    <contour>
      <point x="120" y="78" type="line"/>
      <point x="172" y="309"/>
      <point x="228" y="494"/>
      <point x="256" y="581" type="curve"/>
      <point x="285" y="495"/>
      <point x="338" y="310"/>
      <point x="391" y="78" type="curve"/>
    </contour>
  </outline>
</glyph>
<glyph name="minus" format="2">
  <advance width="430"/>
  <unicode hex="2212"/>
  <outline>
    <contour>
      <point x="43" y="263" type="line"/>
      <point x="387" y="263" type="line"/>
      <point x="387" y="336" type="line"/>
      <point x="43" y="336" type="line"/>
    </contour>
  </outline>
</glyph>
<glyph name="approxequal" format="2">
  <advance width="430"/>
  <unicode hex="2248"/>
  <outline>
    <contour>
      <point x="289" y="133" type="curve" smooth="yes"/>
      <point x="368" y="133"/>
      <point x="396" y="206"/>
      <point x="405" y="265" type="curve"/>
      <point x="346" y="283" type="line"/>
      <point x="336" y="240"/>
      <point x="324" y="211"/>
      <point x="292" y="211" type="curve" smooth="yes"/>
      <point x="248" y="211"/>
      <point x="212" y="286"/>
      <point x="140" y="286" type="curve" smooth="yes"/>
      <point x="62" y="286"/>
      <point x="34" y="213"/>
      <point x="25" y="154" type="curve"/>
      <point x="84" y="136" type="line"/>
      <point x="94" y="179"/>
      <point x="110" y="208"/>
      <point x="138" y="208" type="curve" smooth="yes"/>
      <point x="182" y="208"/>
      <point x="218" y="133"/>
    </contour>
    <contour>
      <point x="289" y="326" type="curve" smooth="yes"/>
      <point x="368" y="326"/>
      <point x="396" y="399"/>
      <point x="405" y="458" type="curve"/>
      <point x="346" y="476" type="line"/>
      <point x="336" y="433"/>
      <point x="324" y="404"/>
      <point x="292" y="404" type="curve" smooth="yes"/>
      <point x="248" y="404"/>
      <point x="212" y="479"/>
      <point x="140" y="479" type="curve" smooth="yes"/>
      <point x="62" y="479"/>
      <point x="34" y="406"/>
      <point x="25" y="347" type="curve"/>
      <point x="84" y="329" type="line"/>
      <point x="94" y="372"/>
      <point x="110" y="401"/>
      <point x="138" y="401" type="curve" smooth="yes"/>
      <point x="182" y="401"/>
      <point x="218" y="326"/>
    </contour>
  </outline>
</glyph>
<glyph name="greaterequal" format="2">
  <advance width="430"/>
  <unicode hex="2265"/>
  <outline>
    <contour>
      <point x="82" y="138" type="line"/>
      <point x="387" y="297" type="line"/>
      <point x="387" y="369" type="line"/>
      <point x="82" y="528" type="line"/>
      <point x="48" y="461" type="line"/>
      <point x="307" y="333" type="line"/>
      <point x="48" y="205" type="line"/>
    </contour>
    <contour>
      <point x="43" y="0" type="line"/>
      <point x="387" y="0" type="line"/>
      <point x="387" y="73" type="line"/>
      <point x="43" y="73" type="line"/>
    </contour>
  </outline>
</glyph>
<glyph name="lozenge" format="2">
  <advance width="426"/>
  <unicode hex="25CA"/>
  <outline>
    <contour>
      <point x="213" y="-22" type="curve"/>
      <point x="280" y="102"/>
      <point x="343" y="225"/>
      <point x="398" y="347" type="curve"/>
      <point x="343" y="469"/>
      <point x="280" y="592"/>
      <point x="213" y="716" type="curve"/>
      <point x="146" y="593"/>
      <point x="84" y="469"/>
      <point x="28" y="347" type="curve"/>
      <point x="81" y="225"/>
      <point x="147" y="102"/>
    </contour>
    <contour>
      <point x="213" y="132" type="curve"/>
      <point x="177" y="202"/>
      <point x="142" y="274"/>
      <point x="108" y="347" type="curve"/>
      <point x="142" y="420"/>
      <point x="177" y="491"/>
      <point x="213" y="561" type="curve"/>
      <point x="248" y="491"/>
      <point x="283" y="420"/>
      <point x="318" y="347" type="curve"/>
      <point x="283" y="274"/>
      <point x="248" y="202"/>
    </contour>
  </outline>
</glyph>
<glyph name="acute.asc" format="2">
  <advance width="314"/>
  <outline>
    <contour>
      <point x="89" y="822" type="line"/>
      <point x="246" y="879" type="line"/>
      <point x="219" y="950" type="line"/>
      <point x="68" y="872" type="line"/>
    </contour>
  </outline>
</glyph>
<glyph name="circumflex.asc" format="2">
  <advance width="314"/>
  <outline>
    <contour>
      <point x="71" y="827" type="line"/>
      <point x="157" y="887" type="line"/>
      <point x="244" y="827" type="line"/>
      <point x="275" y="869" type="line"/>
      <point x="157" y="964" type="line"/>
      <point x="39" y="869" type="line"/>
    </contour>
  </outline>
</glyph>
<glyph name="commaaccent" format="2">
  <anchor x="162" y="0" name="_bottom"/>
  <anchor x="162" y="-188" name="bottom"/>
  <outline>
    <contour>
      <point x="127" y="-188" type="curve" smooth="yes"/>
      <point x="185" y="-188"/>
      <point x="231" y="-155"/>
      <point x="231" y="-71" type="curve" smooth="yes"/>
      <point x="231" y="-67"/>
      <point x="231" y="-57"/>
      <point x="230" y="-50" type="curve"/>
      <point x="156" y="-50" type="line"/>
      <point x="156" y="-54"/>
      <point x="156" y="-59"/>
      <point x="156" y="-63" type="curve" smooth="yes"/>
      <point x="156" y="-113"/>
      <point x="135" y="-140"/>
      <point x="93" y="-132" type="curve"/>
      <point x="93" y="-184" type="line"/>
      <point x="100" y="-186"/>
      <point x="112" y="-188"/>
    </contour>
  </outline>
</glyph>
<glyph name="dieresis_grave" format="2">
  <advance width="314"/>
  <outline>
    <contour>
      <point x="154" y="703" type="line"/>
      <point x="197" y="737" type="line"/>
      <point x="102" y="878" type="line"/>
      <point x="44" y="829" type="line"/>
    </contour>
    <contour>
      <point x="74" y="592" type="curve" smooth="yes"/>
      <point x="103" y="592"/>
      <point x="126" y="613"/>
      <point x="126" y="645" type="curve" smooth="yes"/>
      <point x="126" y="677"/>
      <point x="103" y="698"/>
      <point x="74" y="698" type="curve" smooth="yes"/>
      <point x="45" y="698"/>
      <point x="22" y="677"/>
      <point x="22" y="645" type="curve" smooth="yes"/>
      <point x="22" y="613"/>
      <point x="45" y="592"/>
    </contour>
    <contour>
      <point x="240" y="592" type="curve" smooth="yes"/>
      <point x="269" y="592"/>
      <point x="292" y="613"/>
      <point x="292" y="645" type="curve" smooth="yes"/>
      <point x="292" y="677"/>
      <point x="269" y="698"/>
      <point x="240" y="698" type="curve" smooth="yes"/>
      <point x="211" y="698"/>
      <point x="188" y="677"/>
      <point x="188" y="645" type="curve" smooth="yes"/>
      <point x="188" y="613"/>
      <point x="211" y="592"/>
    </contour>
  </outline>
</glyph>
<glyph name="tilde_macron" format="2">
  <advance width="314"/>
  <outline>
    <contour>
      <point x="79" y="597" type="line"/>
      <point x="87" y="632"/>
      <point x="95" y="643"/>
      <point x="107" y="643" type="curve" smooth="yes"/>
      <point x="120" y="643"/>
      <point x="133" y="632"/>
      <point x="148" y="621" type="curve" smooth="yes"/>
      <point x="165" y="609"/>
      <point x="184" y="597"/>
      <point x="208" y="597" type="curve" smooth="yes"/>
      <point x="247" y="597"/>
      <point x="273" y="632"/>
      <point x="285" y="696" type="curve"/>
      <point x="235" y="713" type="line"/>
      <point x="227" y="678"/>
      <point x="219" y="667"/>
      <point x="207" y="667" type="curve" smooth="yes"/>
      <point x="193" y="667"/>
      <point x="180" y="679"/>
      <point x="164" y="690" type="curve" smooth="yes"/>
      <point x="148" y="702"/>
      <point x="130" y="713"/>
      <point x="106" y="713" type="curve" smooth="yes"/>
      <point x="67" y="713"/>
      <point x="40" y="678"/>
      <point x="29" y="614" type="curve"/>
    </contour>
    <contour>
      <point x="50" y="757" type="line"/>
      <point x="263" y="757" type="line"/>
      <point x="263" y="823" type="line"/>
      <point x="50" y="823" type="line"/>
    </contour>
  </outline>
</glyph>
<glyph name="tonos.cap" format="2">
  <advance width="314"/>
  <anchor x="158" y="776" name="_top"/>
  <outline>
    <contour>
      <point x="155" y="491" type="line"/>
      <point x="223" y="686" type="line"/>
      <point x="138" y="711" type="line"/>
      <point x="92" y="510" type="line"/>
    </contour>
  </outline>
</glyph>
